#N canvas 59 23 1710 1035 12;
#X obj -30 -270 tgl 129 0 empty empty Run 0 -12 0 20 #fffa2a #be24ba
#000000 1 1;
#X obj 1010 370 int;
#X obj 1050 370 + 1;
#X obj 1010 340 metro 500, f 11;
#X obj 1010 440 mod 16;
#X obj 400 -330 hradio 20 0 0 16 empty empty empty 0 -8 0 10 #cd000a
#2eff93 #000000 15;
#X msg 1340 -240 number \$1;
#X floatatom 290 -110 14 0 0 2 Number_of_Steps - -, f 14;
#X obj 290 -82 int;
#N canvas 0 22 450 300 (subpatch) 0;
#X array array1 16 float 23 #00a2ff black;
#A 0 0.372165 0.512901 0.524012 0.464754 0.427718 0.249946 0.26476
0.335129 0.375868 0.312907 0.261057 0.238835 0.129626 0.467617 0.475024
0.526874;
#X coords 0 1 16 0 420 270 1;
#X restore 400 -300 graph;
#X obj 1000 30 tabread array1;
#X floatatom 1010 500 5 0 0 0 - - -, f 5;
#X floatatom 1000 60 5 0 0 0 - - -, f 5;
#X obj 1000 123 * 1000;
#X floatatom 1000 152 14 0 0 0 - - -, f 14;
#X obj 1000 93 clip 0.05 1;
#X msg 1190 -240 \; array1 resize \$1;
#X obj 1460 210 r step-duration;
#X obj 1000 180 s step-duration;
#N canvas 0 22 450 300 (subpatch) 0;
#X array array2 16 float 23 #ffc600 black;
#A 0 4.92843 1 1 1 2 1 6.7222 1 2.44444 1 3.33332 1 16 1 5.05554 3.94443
;
#X coords 0 16 16 1 420 270 1;
#X restore 400 -10 graph;
#X msg 1190 -160 \; array2 resize \$1;
#X obj 40 1590 metro 500;
#X obj 1480 240 r step-reps;
#X floatatom 500 1300 8 0 0 0 - - -, f 8;
#X obj 940 942 *~, f 4;
#X obj 940 980 dac~, f 7;
#X obj 1280 -10 tabread array2;
#X obj 1280 19 int;
#X floatatom 1280 90 5 0 0 0 - - -, f 5;
#X obj 1020 850 bng 15 250 50 0 empty empty empty 17 7 0 10 #fcfcfc
#000000 #000000;
#X obj 960 910 vline~;
#X obj 1280 118 s step-reps;
#X msg 980 880 1 20 0 \, 0 30 20;
#X obj 940 840 osc~ 880;
#X obj 290 -200 loadbang;
#X msg 290 -171 16;
#X obj 1480 330 pack 0 0;
#X obj 1480 280 t b;
#X obj 1010 300 r running;
#X obj 40 1530 r running;
#X obj -50 -130 s running;
#X obj 1050 400 r steps;
#X obj 290 -52 s steps;
#X obj 1340 -270 r steps;
#X obj 1190 -270 r steps;
#X obj 1190 -190 r steps;
#X obj 1080 300 r metrocalc;
#X obj 540 1240 s metrocalc;
#N canvas 0 22 450 300 (subpatch) 0;
#X array array3 5 float 23 #ff2cea black;
#A 0 48.9302 61.9549 56.2945 69.7832 0;
#X coords 0 127 5 0 420 270 1;
#X restore 400 310 graph;
#X obj 40 1160 int;
#X obj 40 1230 mod 16;
#X obj 400 280 hradio 20 0 0 5 empty empty empty 0 -8 0 10 #cd000a
#2eff93 #000000 4;
#X obj 940 760 mtof;
#X floatatom 260 500 14 0 0 2 Number_of_Notes - -, f 14;
#X obj 260 528 int;
#X msg 180 1350 \; array3 resize \$1;
#X msg 40 1350 number \$1;
#X obj 1480 360 expr $f1 / $f2;
#X obj 1358 362 expr $f1 * $f2;
#X obj -30 -90 tgl 129 1 empty empty XMultiply/ODivide 0 -10 0 10 #fcfcfc
#000000 #000000 0 1;
#N canvas 735 23 450 300 select_mul_div 0;
#X obj 140 110 spigot;
#X obj 80 110 spigot;
#X obj 10 50 - 1;
#X obj 10 80 abs;
#X obj 10 20 inlet;
#X obj 80 30 inlet;
#X obj 140 40 inlet;
#X obj 80 180 outlet;
#X text 10 0 toggle;
#X text 80 10 multiply;
#X text 140 20 divide;
#X connect 0 0 7 0;
#X connect 1 0 7 0;
#X connect 2 0 3 0;
#X connect 3 0 0 1;
#X connect 4 0 2 0;
#X connect 4 0 1 1;
#X connect 5 0 1 0;
#X connect 6 0 0 0;
#X restore 500 1210 pd select_mul_div;
#X obj 260 418 loadbang;
#X msg 260 447 4;
#X obj 1280 50 clip 1 32;
#X obj 1340 -210 s stepslength;
#X obj 510 -360 r stepslength;
#X obj 1000 0 r stepspos;
#X obj 1280 -40 r stepspos;
#X obj 400 -360 r stepspos;
#X obj 1020 470 s stepspos;
#N canvas 735 23 450 300 select_mul_div 0;
#X obj 140 110 spigot;
#X obj 80 110 spigot;
#X obj 10 50 - 1;
#X obj 10 80 abs;
#X obj 10 20 inlet;
#X obj 80 30 inlet;
#X obj 140 40 inlet;
#X obj 80 180 outlet;
#X text 10 0 toggle;
#X text 80 10 multiply;
#X text 140 20 divide;
#X connect 0 0 7 0;
#X connect 1 0 7 0;
#X connect 2 0 3 0;
#X connect 3 0 0 1;
#X connect 4 0 2 0;
#X connect 4 0 1 1;
#X connect 5 0 1 0;
#X connect 6 0 0 0;
#X restore 500 1470 pd select_mul_div;
#X obj 500 1270 trigger f b, f 12;
#X obj 100 1160 + 1;
#X obj 60 1190 pipe 2;
#X obj 500 1499 s notesync;
#X obj 100 1560 r notesync;
#X obj 580 1300 s note-trig;
#X obj 40 1090 r note-trig;
#X obj 530 1180 r mul-time;
#X obj 620 1440 r div-time;
#X obj 1358 402 s mul-time;
#X obj 610 1180 r step-duration;
#X obj 1478 402 s div-time;
#X obj 550 1420 r step-duration;
#X text 1230 440 calculate multiply or divide for note sync and note
trig;
#X obj 40 1380 s note-pos-size;
#X obj 280 320 r note-pos-size;
#X obj 40 1260 s note-pos;
#X obj 280 350 r note-pos;
#X obj 260 558 s notes-table-size;
#X obj 40 1320 r notes-table-size;
#X obj 180 1320 r notes-table-size;
#X obj 120 1190 r notes-table-size;
#X text 730 -30 step duration;
#X text 730 260 step repeats;
#X text 740 580 step notes;
#X text 1010 270 position to read from steps tables timer;
#X text 1280 -70 read from repeats table;
#X text 1000 -30 read from duration table;
#X text 1187 -297 related to resizing the tables for steps;
#X text 40 1290 related to resizing the notes table;
#X text -30 80 should we divide the steps or multiply;
#X obj 300 1180 int;
#X floatatom 300 1210 5 0 0 0 - - -, f 5;
#X obj 300 1150 tabread array3;
#X obj 300 1120 r note-pos;
#X obj 300 1238 s note-value;
#X obj 940 720 r note-value;
#X text 300 1090 read from notes table;
#X text 40 1070 position to read from notes tables;
#X obj 40 1610 s note-trigger;
#X obj 1020 820 r note-trigger;
#X text 40 1500 note triggering metronome;
#X text 940 680 debug synth;
#X obj -30 50 s div-mul;
#X obj 500 1390 r div-mul;
#X obj 500 1150 r div-mul;
#X text 500 1360 calculate the timer for note trigger metronome;
#X text 500 1080 calculate the timer for note trigger table / steps
table;
#X text 500 1109 It changes when we are in multiply or division mode
;
#X obj 80 430 makenote;
#X obj 80 480 noteout, f 15;
#X floatatom 150 430 5 0 0 2 MIDI_Channel - -, f 5;
#X obj 80 360 r note-value;
#N canvas 0 22 450 300 (subpatch) 0;
#X array array4 4 float 23 #82ffc6 black;
#A 0 104.314 61.9549 56.2945 37.7138;
#X coords 0 127 4 0 420 270 1;
#X restore 400 610 graph;
#X text 690 880 step velocity/dur;
#X obj 320 1430 int;
#X floatatom 320 1460 5 0 0 0 - - -, f 5;
#X obj 320 1370 r note-pos;
#X text 320 1340 read from velocity table;
#X obj 320 1400 tabread array4;
#X obj 320 1488 s note-vel;
#X obj 90 390 r note-vel;
#X obj 178 361 r note-dur;
#X obj 411 1489 s note-dur;
#X obj 180 1400 r notes-table-size;
#X msg 180 1430 \; array4 resize \$1;
#X connect 0 0 40 0;
#X connect 1 0 2 0;
#X connect 1 0 4 0;
#X connect 2 0 1 1;
#X connect 3 0 1 0;
#X connect 4 0 11 0;
#X connect 4 0 69 0;
#X connect 6 0 64 0;
#X connect 7 0 8 0;
#X connect 8 0 42 0;
#X connect 10 0 12 0;
#X connect 12 0 15 0;
#X connect 13 0 14 0;
#X connect 14 0 18 0;
#X connect 15 0 13 0;
#X connect 17 0 36 0;
#X connect 21 0 110 0;
#X connect 22 0 36 1;
#X connect 22 0 37 0;
#X connect 24 0 25 0;
#X connect 24 0 25 1;
#X connect 26 0 27 0;
#X connect 27 0 63 0;
#X connect 28 0 31 0;
#X connect 29 0 32 0;
#X connect 30 0 24 1;
#X connect 32 0 30 0;
#X connect 33 0 24 0;
#X connect 34 0 35 0;
#X connect 35 0 7 0;
#X connect 36 0 57 0;
#X connect 36 0 58 0;
#X connect 37 0 36 0;
#X connect 38 0 3 0;
#X connect 39 0 21 0;
#X connect 41 0 4 1;
#X connect 43 0 6 0;
#X connect 44 0 16 0;
#X connect 45 0 20 0;
#X connect 46 0 3 1;
#X connect 49 0 50 0;
#X connect 49 0 73 0;
#X connect 50 0 87 0;
#X connect 52 0 33 0;
#X connect 53 0 54 0;
#X connect 54 0 89 0;
#X connect 56 0 85 0;
#X connect 57 0 82 0;
#X connect 58 0 80 0;
#X connect 59 0 114 0;
#X connect 60 0 47 0;
#X connect 60 0 71 0;
#X connect 61 0 62 0;
#X connect 62 0 53 0;
#X connect 63 0 28 0;
#X connect 65 0 5 0;
#X connect 66 0 10 0;
#X connect 67 0 26 0;
#X connect 68 0 5 0;
#X connect 70 0 74 0;
#X connect 71 0 23 0;
#X connect 71 1 76 0;
#X connect 72 0 49 1;
#X connect 73 0 72 0;
#X connect 75 0 21 1;
#X connect 77 0 49 0;
#X connect 78 0 60 1;
#X connect 79 0 70 2;
#X connect 81 0 60 2;
#X connect 83 0 70 1;
#X connect 86 0 51 0;
#X connect 88 0 51 0;
#X connect 90 0 56 0;
#X connect 91 0 55 0;
#X connect 92 0 50 1;
#X connect 102 0 103 0;
#X connect 103 0 106 0;
#X connect 104 0 102 0;
#X connect 105 0 104 0;
#X connect 107 0 52 0;
#X connect 111 0 29 0;
#X connect 115 0 70 0;
#X connect 116 0 60 0;
#X connect 120 0 121 0;
#X connect 120 1 121 1;
#X connect 122 0 121 2;
#X connect 123 0 120 0;
#X connect 126 0 127 0;
#X connect 127 0 131 0;
#X connect 127 0 134 0;
#X connect 128 0 130 0;
#X connect 130 0 126 0;
#X connect 132 0 120 1;
#X connect 133 0 120 2;
#X connect 135 0 136 0;
